<svg width="40" height="35" viewBox="0 0 40 35" fill="none" xmlns="http://www.w3.org/2000/svg">
<path d="M13.5967 15.5481C16.7904 15.5481 19.3891 12.0607 19.3891 7.77405C19.3891 3.48742 16.7904 0 13.5967 0C10.403 0 7.80432 3.48742 7.80432 7.77405C7.80432 12.0607 10.4024 15.5481 13.5967 15.5481ZM13.5967 1.89088C15.7114 1.89088 17.4982 4.58539 17.4982 7.77405C17.4982 10.9627 15.712 13.6572 13.5967 13.6572C11.4815 13.6572 9.6952 10.9627 9.6952 7.77405C9.6952 4.58539 11.4815 1.89088 13.5967 1.89088Z" fill="white"/>
<path d="M30.7773 23.1091C30.6581 22.9478 30.5441 22.7952 30.4836 22.6635C29.1889 19.8915 25.6372 16.6228 19.8864 16.5415L19.6652 16.5402C14.002 16.5402 10.478 19.6362 9.06805 22.5343C9.01952 22.6326 8.91237 22.7618 8.79892 22.8973C8.66529 23.0574 8.5323 23.2201 8.41822 23.3972C7.22696 25.2509 6.61999 27.3365 6.70949 29.2702C6.80404 31.325 7.6625 32.9745 9.12667 33.9149C9.71726 34.2956 10.3557 34.4866 11.0245 34.4866C12.4055 34.4866 13.6692 33.7094 15.1334 32.8075C16.0637 32.2358 17.0255 31.6427 18.0945 31.1996C18.2149 31.1599 18.7046 31.1 19.507 31.1C20.4619 31.1 21.1457 31.1844 21.2926 31.2361C22.3345 31.6956 23.2503 32.3001 24.1371 32.8825C25.4948 33.7762 26.7768 34.6214 28.1679 34.6214C28.7647 34.6214 29.3446 34.4651 29.8898 34.1538C32.9014 32.4425 33.4749 27.7487 31.1693 23.689C31.0533 23.486 30.9147 23.2963 30.7773 23.1091ZM28.9551 32.5106C28.6891 32.6606 28.4395 32.7312 28.1672 32.7312C27.3428 32.7312 26.3394 32.07 25.1758 31.3042C24.2695 30.7073 23.2434 30.031 22.0565 29.5066C21.4729 29.2482 20.2072 29.2091 19.5064 29.2091C18.4796 29.2091 17.7667 29.2898 17.3873 29.4455C16.1626 29.9547 15.0893 30.614 14.1419 31.1971C12.9229 31.9458 11.8703 32.5957 11.0245 32.5957C10.7156 32.5957 10.4377 32.5093 10.149 32.3234C9.21428 31.7227 8.66403 30.6065 8.59785 29.182C8.52663 27.6378 9.02771 25.9454 10.0085 24.4189C10.0797 24.3073 10.166 24.2084 10.2499 24.1088C10.4226 23.902 10.6192 23.6669 10.7686 23.36C11.9283 20.9768 14.8743 18.4311 19.6652 18.4311L19.8593 18.4323C24.7353 18.501 27.7071 21.1861 28.7698 23.4633C28.9116 23.7653 29.0956 24.0149 29.257 24.2342C29.349 24.3596 29.4467 24.4863 29.5255 24.6243C31.3155 27.7758 31.0603 31.3137 28.9551 32.5106Z" fill="white"/>
<path d="M25.912 15.5481C29.1064 15.5481 31.7051 12.0607 31.7051 7.77405C31.7051 3.48742 29.107 0 25.912 0C22.719 0 20.1203 3.48742 20.1203 7.77405C20.1203 12.0607 22.7183 15.5481 25.912 15.5481ZM25.912 1.89088C28.0267 1.89088 29.8142 4.58539 29.8142 7.77405C29.8142 10.9627 28.0279 13.6572 25.912 13.6572C23.7974 13.6572 22.0112 10.9627 22.0112 7.77405C22.0112 4.58539 23.7974 1.89088 25.912 1.89088Z" fill="white"/>
<path d="M35.4257 11.5558C32.8661 11.5558 30.8617 14.2112 30.8617 17.6003C30.8617 20.9882 32.8667 23.6436 35.4257 23.6436C37.9847 23.6436 39.989 20.9882 39.989 17.6003C39.989 14.2112 37.9853 11.5558 35.4257 11.5558ZM35.4257 21.7527C33.9766 21.7527 32.7526 19.8505 32.7526 17.6003C32.7526 15.3489 33.9766 13.4467 35.4257 13.4467C36.8747 13.4467 38.0981 15.3489 38.0981 17.6003C38.0981 19.8505 36.8741 21.7527 35.4257 21.7527Z" fill="white"/>
<path d="M9.12792 17.6003C9.12792 14.2112 7.12295 11.5558 4.56396 11.5558C2.00497 11.5558 0 14.2112 0 17.6003C0 20.9882 2.00497 23.6436 4.56396 23.6436C7.12295 23.6436 9.12792 20.9882 9.12792 17.6003ZM4.56396 21.7527C3.11491 21.7527 1.89088 19.8505 1.89088 17.6003C1.89088 15.3489 3.11491 13.4467 4.56396 13.4467C6.01301 13.4467 7.23704 15.3489 7.23704 17.6003C7.23704 19.8505 6.01301 21.7527 4.56396 21.7527Z" fill="white"/>
</svg>
